<svg width="129" height="23" viewBox="0 0 129 23" fill="none" xmlns="http://www.w3.org/2000/svg">
<path d="M11.3146 0.698836C12.7441 0.633808 14.089 0.802122 15.4052 1.22913C19.038 2.40767 21.8613 5.51041 22.7144 9.2366C23.876 14.31 21.3645 19.5644 16.4939 21.7798C14.6638 22.6122 12.7394 22.8957 10.7308 22.6856C6.32713 22.225 2.28389 18.9767 1.19337 14.1951C0.0831366 9.32713 2.28291 4.45747 6.65193 2.03351C8.08535 1.23823 9.62696 0.802415 11.3146 0.698836Z" fill="#010101"/>
<path d="M109.53 3.67153C110.979 2.32457 112.629 1.42184 114.518 0.981764C120.653 -0.447538 126.346 3.35702 127.776 8.94787C129.053 13.937 126.793 19.0132 122.32 21.4396C121.06 22.1235 119.71 22.5257 118.28 22.6878C114.157 23.1554 110.016 21.2117 107.736 17.585C106.835 16.151 106.28 14.591 106.118 12.9003C105.774 9.29243 106.925 6.232 109.53 3.67153Z" fill="#010101"/>
<path d="M29.2918 19.6502C30.2663 17.998 31.222 16.3799 32.168 14.7781C32.6633 14.7051 47.9953 14.6762 49.6029 14.7409C49.6182 14.7498 49.6342 14.7579 49.6487 14.768C49.663 14.778 49.6803 14.7876 49.6888 14.8018C51.0444 17.0908 52.3995 19.3803 53.7542 21.6699C53.8082 21.7612 53.8594 21.8543 53.9104 21.9474C53.9186 21.9623 53.922 21.9818 53.9217 21.999C53.9214 22.0156 53.9134 22.032 53.9088 22.0485C53.901 22.0638 53.8967 22.0844 53.8842 22.0932C53.8712 22.1023 53.8501 22.1026 53.8326 22.1026C45.2749 22.1051 36.7171 22.1074 28.1593 22.1089C28.0914 22.1089 28.0234 22.0997 27.9143 22.0918C27.9488 21.9919 27.9635 21.9082 28.0037 21.8395C28.4244 21.1197 28.8492 20.4024 29.2918 19.6502Z" fill="#010101"/>
<path d="M100.019 19.713C100.478 20.5091 100.944 21.2562 101.356 21.9971C101.317 22.0656 101.312 22.0853 101.3 22.0936C101.286 22.1025 101.266 22.103 101.248 22.103C92.6725 22.1052 84.0969 22.1071 75.5214 22.1079C75.4716 22.108 75.4219 22.0937 75.3336 22.0803C75.3663 21.9891 75.3822 21.9058 75.4227 21.837C76.773 19.5443 78.1255 17.2529 79.4785 14.9618C79.5227 14.887 79.5763 14.8177 79.6281 14.742C85.4441 14.742 91.246 14.742 97.0852 14.742C98.0537 16.3844 99.0256 18.0325 100.019 19.713Z" fill="#010101"/>
<path d="M68.309 1.37512C68.8744 1.37512 69.3868 1.37512 69.8911 1.37512C70.0203 1.58418 69.9708 1.78418 69.9711 1.97294C69.9748 4.45726 69.9736 6.94157 69.9736 9.42589C69.9736 10.3132 69.9745 11.2004 69.9728 12.0877C69.9725 12.2446 69.9613 12.4015 69.9566 12.5215C69.9197 12.5714 69.9117 12.5895 69.8978 12.5989C69.884 12.6081 69.8643 12.6124 69.8471 12.6124C66.4227 12.6173 62.9984 12.6218 59.574 12.6253C59.4689 12.6254 59.3638 12.6148 59.2363 12.608C59.2191 12.499 59.1892 12.3976 59.1891 12.2962C59.1867 8.76495 59.187 5.23367 59.188 1.70239C59.1881 1.61632 59.2017 1.53025 59.2105 1.42585C59.407 1.34238 59.6031 1.37713 59.7914 1.37696C62.6129 1.3743 65.4344 1.37512 68.309 1.37512Z" fill="#020202"/>
<path d="M35.5964 12.626C34.8743 12.626 34.2055 12.626 33.5393 12.626C33.5354 12.554 33.5197 12.5123 33.5339 12.4882C35.9767 8.33394 38.4217 4.18092 40.8586 0.0415329C41.0611 0.0247077 41.0748 0.180671 41.1305 0.274679C42.3411 2.31792 43.5478 4.36345 44.7543 6.40912C45.8708 8.30217 46.9864 10.1957 48.1015 12.0896C48.1896 12.2393 48.2706 12.3931 48.343 12.5235C48.3253 12.5746 48.324 12.5963 48.3125 12.6068C48.3014 12.6168 48.2797 12.6181 48.2627 12.6181C44.0584 12.6211 39.854 12.6235 35.5964 12.626Z" fill="#020202"/>
<path d="M86.1215 3.70113C86.8648 2.45258 87.5758 1.22985 88.2896 0.0356856C88.3532 0.0356856 88.3722 0.0310712 88.387 0.0369604C88.4024 0.0431194 88.418 0.0569886 88.4266 0.0715636C90.8602 4.19539 93.2933 8.31955 95.7254 12.4443C95.7423 12.473 95.7479 12.5098 95.7527 12.5437C95.7549 12.5594 95.7425 12.5771 95.7313 12.6094C90.8102 12.6094 85.8837 12.6094 80.9631 12.6094C80.9513 12.576 80.942 12.5595 80.9404 12.5424C80.9389 12.5261 80.9428 12.508 80.9487 12.4924C80.9612 12.4593 80.9733 12.4254 80.9912 12.3951C82.6768 9.53883 84.3628 6.6829 86.0488 3.82694C86.0669 3.79639 86.0848 3.76576 86.1215 3.70113Z" fill="#020202"/>
<path d="M69.9736 15.2346C69.9736 17.5347 69.9736 19.7857 69.9736 22.0687C69.8582 22.0857 69.7766 22.1082 69.6949 22.1083C66.2878 22.11 62.8806 22.1099 59.4735 22.1091C59.4032 22.1091 59.333 22.0984 59.2391 22.0908C59.2216 21.9881 59.1894 21.8873 59.1893 21.7864C59.1867 19.515 59.1874 17.2435 59.1884 14.9721C59.1885 14.9195 59.1991 14.8668 59.2052 14.811C59.336 14.6758 59.5048 14.7291 59.6561 14.7288C61.5371 14.725 63.4182 14.7263 65.2992 14.7263C66.6656 14.7263 68.032 14.7256 69.3984 14.7271C69.5722 14.7273 69.7459 14.7391 69.9494 14.7466C69.9585 14.9119 69.9661 15.0486 69.9736 15.2346Z" fill="#020202"/>
</svg>
