<svg width="74" height="74" viewBox="0 0 74 74" fill="none" xmlns="http://www.w3.org/2000/svg">
<g filter="url(#filter0_d_1_2458)">
<path d="M35.3636 18.2965C36.4821 16.9765 38.518 16.9765 39.6364 18.2965L40.9841 19.8872C41.6699 20.6967 42.7542 21.049 43.7849 20.7973L45.8101 20.3025C47.4908 19.892 49.1379 21.0887 49.2669 22.8139L49.4221 24.893C49.5012 25.951 50.1714 26.8734 51.1531 27.2755L53.0824 28.0657C54.6835 28.7214 55.3126 30.6577 54.4028 32.1293L53.3064 33.9025C52.7485 34.8049 52.7485 35.9451 53.3064 36.8475L54.4028 38.6208C55.3126 40.0923 54.6835 42.0287 53.0824 42.6843L51.1531 43.4746C50.1714 43.8767 49.5012 44.7991 49.4221 45.857L49.2669 47.9361C49.1379 49.6613 47.4908 50.858 45.8101 50.4476L43.7849 49.9528C42.7542 49.7009 41.6699 50.0533 40.9841 50.8628L39.6364 52.4535C38.518 53.7735 36.4821 53.7735 35.3636 52.4535L34.016 50.8628C33.3301 50.0533 32.2458 49.7009 31.2151 49.9528L29.1899 50.4476C27.5092 50.858 25.8621 49.6613 25.7332 47.9361L25.5779 45.857C25.4988 44.7991 24.8287 43.8767 23.8469 43.4746L21.9176 42.6843C20.3166 42.0287 19.6874 40.0923 20.5973 38.6208L21.6936 36.8475C22.2516 35.9451 22.2516 34.8049 21.6936 33.9025L20.5973 32.1293C19.6874 30.6577 20.3166 28.7214 21.9176 28.0657L23.8469 27.2755C24.8287 26.8734 25.4988 25.951 25.5779 24.893L25.7332 22.8139C25.8621 21.0887 27.5092 19.892 29.1899 20.3025L31.2151 20.7973C32.2458 21.049 33.3301 20.6967 34.016 19.8872L35.3636 18.2965Z" fill="#2081E2"/>
</g>
<path d="M35.4 39.05L31.725 35.375L30.5 36.6L35.4 41.5L45.9 31L44.675 29.775L35.4 39.05Z" fill="white" stroke="white" stroke-width="0.666667"/>
<defs>
<filter id="filter0_d_1_2458" x="0.277857" y="-2.59348" width="74.4443" height="75.937" filterUnits="userSpaceOnUse" color-interpolation-filters="sRGB">
<feFlood flood-opacity="0" result="BackgroundImageFix"/>
<feColorMatrix in="SourceAlpha" type="matrix" values="0 0 0 0 0 0 0 0 0 0 0 0 0 0 0 0 0 0 127 0" result="hardAlpha"/>
<feOffset/>
<feGaussianBlur stdDeviation="9.95"/>
<feComposite in2="hardAlpha" operator="out"/>
<feColorMatrix type="matrix" values="0 0 0 0 1 0 0 0 0 1 0 0 0 0 1 0 0 0 1 0"/>
<feBlend mode="normal" in2="BackgroundImageFix" result="effect1_dropShadow_1_2458"/>
<feBlend mode="normal" in="SourceGraphic" in2="effect1_dropShadow_1_2458" result="shape"/>
</filter>
</defs>
</svg>
